<svg width="21" height="23" viewBox="0 0 21 23" fill="none" xmlns="http://www.w3.org/2000/svg">
<path d="M14.125 21.0217C14.1734 21.3842 14.0525 21.7708 13.7746 22.0246C13.6628 22.1366 13.5301 22.2255 13.3839 22.2861C13.2377 22.3467 13.081 22.378 12.9227 22.378C12.7645 22.378 12.6078 22.3467 12.4616 22.2861C12.3154 22.2255 12.1827 22.1366 12.0709 22.0246L7.22545 17.1792C7.09374 17.0503 6.99359 16.8927 6.9328 16.7187C6.87202 16.5448 6.85225 16.3591 6.87504 16.1763V9.98958L1.08712 2.5825C0.890896 2.3306 0.802356 2.01127 0.840847 1.69429C0.879337 1.37731 1.04173 1.08845 1.29254 0.890833C1.52212 0.721667 1.77587 0.625 2.0417 0.625H18.9584C19.2242 0.625 19.478 0.721667 19.7075 0.890833C19.9583 1.08845 20.1207 1.37731 20.1592 1.69429C20.1977 2.01127 20.1092 2.3306 19.913 2.5825L14.125 9.98958V21.0217ZM4.5067 3.04167L9.2917 9.15583V15.8258L11.7084 18.2425V9.14375L16.4934 3.04167H4.5067Z" fill="#579076"/>
</svg>
